<mxfile host="app.diagrams.net" agent="Mozilla/5.0 (Windows NT 10.0; Win64; x64) AppleWebKit/537.36 (KHTML, like Gecko) Chrome/133.0.0.0 Safari/537.36" version="26.0.16" pages="2">
  <diagram name="Page-1" id="TnUqZAVgYZi3EKeVDneK">
    <mxGraphModel dx="1050" dy="557" grid="1" gridSize="10" guides="1" tooltips="1" connect="1" arrows="1" fold="1" page="0" pageScale="1" pageWidth="850" pageHeight="1100" math="0" shadow="0">
      <root>
        <mxCell id="0" />
        <mxCell id="1" parent="0" />
        <mxCell id="-pRABI8FO-9ogXLw7Bjb-4" value="" style="rounded=0;whiteSpace=wrap;html=1;" parent="1" vertex="1">
          <mxGeometry x="40" y="140" width="490" height="140" as="geometry" />
        </mxCell>
        <mxCell id="-pRABI8FO-9ogXLw7Bjb-1" value="Kemenkoan&lt;div&gt;Kesma&lt;/div&gt;" style="rounded=0;whiteSpace=wrap;html=1;" parent="1" vertex="1">
          <mxGeometry x="220" y="180" width="120" height="60" as="geometry" />
        </mxCell>
        <mxCell id="-pRABI8FO-9ogXLw7Bjb-2" value="Kemenkoan&lt;div&gt;Dinpus&lt;/div&gt;" style="rounded=0;whiteSpace=wrap;html=1;" parent="1" vertex="1">
          <mxGeometry x="70" y="180" width="120" height="60" as="geometry" />
        </mxCell>
        <mxCell id="-pRABI8FO-9ogXLw7Bjb-3" value="Kemenkoan&lt;div&gt;PSDM&lt;/div&gt;" style="rounded=0;whiteSpace=wrap;html=1;" parent="1" vertex="1">
          <mxGeometry x="370" y="180" width="120" height="60" as="geometry" />
        </mxCell>
        <mxCell id="-pRABI8FO-9ogXLw7Bjb-11" value="HMPS" style="rounded=0;whiteSpace=wrap;html=1;" parent="1" vertex="1">
          <mxGeometry x="70" y="450" width="120" height="60" as="geometry" />
        </mxCell>
        <mxCell id="-pRABI8FO-9ogXLw7Bjb-12" value="UKM" style="rounded=0;whiteSpace=wrap;html=1;" parent="1" vertex="1">
          <mxGeometry x="225" y="450" width="120" height="60" as="geometry" />
        </mxCell>
        <mxCell id="-pRABI8FO-9ogXLw7Bjb-13" value="TPB" style="rounded=0;whiteSpace=wrap;html=1;" parent="1" vertex="1">
          <mxGeometry x="610" y="450" width="120" height="60" as="geometry" />
        </mxCell>
        <mxCell id="-pRABI8FO-9ogXLw7Bjb-29" style="edgeStyle=orthogonalEdgeStyle;rounded=0;orthogonalLoop=1;jettySize=auto;html=1;entryX=0.5;entryY=1;entryDx=0;entryDy=0;" parent="1" source="-pRABI8FO-9ogXLw7Bjb-18" target="-pRABI8FO-9ogXLw7Bjb-2" edge="1">
          <mxGeometry relative="1" as="geometry" />
        </mxCell>
        <mxCell id="-pRABI8FO-9ogXLw7Bjb-18" value="Ketua&lt;div&gt;Lembaga&lt;/div&gt;" style="rounded=0;whiteSpace=wrap;html=1;" parent="1" vertex="1">
          <mxGeometry x="70" y="330" width="120" height="60" as="geometry" />
        </mxCell>
        <mxCell id="-pRABI8FO-9ogXLw7Bjb-30" style="edgeStyle=orthogonalEdgeStyle;rounded=0;orthogonalLoop=1;jettySize=auto;html=1;entryX=0.5;entryY=1;entryDx=0;entryDy=0;" parent="1" source="-pRABI8FO-9ogXLw7Bjb-23" target="-pRABI8FO-9ogXLw7Bjb-1" edge="1">
          <mxGeometry relative="1" as="geometry" />
        </mxCell>
        <mxCell id="-pRABI8FO-9ogXLw7Bjb-23" value="Forum Kesma" style="rounded=0;whiteSpace=wrap;html=1;" parent="1" vertex="1">
          <mxGeometry x="220" y="330" width="120" height="60" as="geometry" />
        </mxCell>
        <mxCell id="-pRABI8FO-9ogXLw7Bjb-24" value="" style="rounded=0;whiteSpace=wrap;html=1;" parent="1" vertex="1">
          <mxGeometry x="580" y="140" width="490" height="140" as="geometry" />
        </mxCell>
        <mxCell id="-pRABI8FO-9ogXLw7Bjb-25" value="Kemenkoan&lt;div&gt;Kesma&lt;/div&gt;" style="rounded=0;whiteSpace=wrap;html=1;" parent="1" vertex="1">
          <mxGeometry x="760" y="180" width="120" height="60" as="geometry" />
        </mxCell>
        <mxCell id="-pRABI8FO-9ogXLw7Bjb-26" value="Kemenkoan&lt;div&gt;Dinpus&lt;/div&gt;" style="rounded=0;whiteSpace=wrap;html=1;" parent="1" vertex="1">
          <mxGeometry x="610" y="180" width="120" height="60" as="geometry" />
        </mxCell>
        <mxCell id="-pRABI8FO-9ogXLw7Bjb-27" value="Kemenkoan&lt;div&gt;PSDM&lt;/div&gt;" style="rounded=0;whiteSpace=wrap;html=1;" parent="1" vertex="1">
          <mxGeometry x="910" y="180" width="120" height="60" as="geometry" />
        </mxCell>
        <mxCell id="-pRABI8FO-9ogXLw7Bjb-28" value="TPB" style="rounded=0;whiteSpace=wrap;html=1;" parent="1" vertex="1">
          <mxGeometry x="225" y="560" width="120" height="60" as="geometry" />
        </mxCell>
        <mxCell id="-pRABI8FO-9ogXLw7Bjb-32" style="edgeStyle=orthogonalEdgeStyle;rounded=0;orthogonalLoop=1;jettySize=auto;html=1;entryX=0.5;entryY=1;entryDx=0;entryDy=0;" parent="1" source="-pRABI8FO-9ogXLw7Bjb-31" target="-pRABI8FO-9ogXLw7Bjb-3" edge="1">
          <mxGeometry relative="1" as="geometry" />
        </mxCell>
        <mxCell id="-pRABI8FO-9ogXLw7Bjb-31" value="Forum&lt;div&gt;PSDA/MSDA&lt;/div&gt;" style="rounded=0;whiteSpace=wrap;html=1;" parent="1" vertex="1">
          <mxGeometry x="370" y="330" width="120" height="60" as="geometry" />
        </mxCell>
      </root>
    </mxGraphModel>
  </diagram>
  <diagram id="0jO3OrKtEDyy0_kt1fNa" name="Page-2">
    <mxGraphModel dx="1050" dy="1657" grid="1" gridSize="10" guides="1" tooltips="1" connect="1" arrows="1" fold="1" page="1" pageScale="1" pageWidth="850" pageHeight="1100" math="0" shadow="0">
      <root>
        <mxCell id="0" />
        <mxCell id="1" parent="0" />
        <mxCell id="9Qag15oj4yZn481anW6_-1" value="" style="ellipse;whiteSpace=wrap;html=1;aspect=fixed;movable=0;resizable=0;rotatable=0;deletable=0;editable=0;locked=1;connectable=0;" vertex="1" parent="1">
          <mxGeometry x="186" y="-50" width="480" height="480" as="geometry" />
        </mxCell>
        <mxCell id="9Qag15oj4yZn481anW6_-2" value="Individu" style="ellipse;whiteSpace=wrap;html=1;aspect=fixed;" vertex="1" parent="1">
          <mxGeometry x="230" y="158" width="70" height="70" as="geometry" />
        </mxCell>
        <mxCell id="9Qag15oj4yZn481anW6_-3" value="HMPS" style="ellipse;whiteSpace=wrap;html=1;aspect=fixed;" vertex="1" parent="1">
          <mxGeometry x="272" y="280" width="70" height="70" as="geometry" />
        </mxCell>
        <mxCell id="9Qag15oj4yZn481anW6_-4" value="UKM" style="ellipse;whiteSpace=wrap;html=1;aspect=fixed;" vertex="1" parent="1">
          <mxGeometry x="511" y="280" width="70" height="70" as="geometry" />
        </mxCell>
        <mxCell id="9Qag15oj4yZn481anW6_-5" value="TPB" style="ellipse;whiteSpace=wrap;html=1;aspect=fixed;" vertex="1" parent="1">
          <mxGeometry x="560" y="158" width="70" height="70" as="geometry" />
        </mxCell>
        <mxCell id="9Qag15oj4yZn481anW6_-6" value="Kabinet" style="ellipse;whiteSpace=wrap;html=1;aspect=fixed;" vertex="1" parent="1">
          <mxGeometry x="515" y="40" width="70" height="70" as="geometry" />
        </mxCell>
        <mxCell id="9Qag15oj4yZn481anW6_-7" value="MWA-WM" style="ellipse;whiteSpace=wrap;html=1;aspect=fixed;" vertex="1" parent="1">
          <mxGeometry x="390" y="-10" width="70" height="70" as="geometry" />
        </mxCell>
        <mxCell id="9Qag15oj4yZn481anW6_-8" value="Komunitas" style="ellipse;whiteSpace=wrap;html=1;aspect=fixed;" vertex="1" parent="1">
          <mxGeometry x="390" y="328" width="70" height="70" as="geometry" />
        </mxCell>
        <mxCell id="9Qag15oj4yZn481anW6_-9" value="Kongres" style="ellipse;whiteSpace=wrap;html=1;aspect=fixed;" vertex="1" parent="1">
          <mxGeometry x="276" y="42" width="70" height="70" as="geometry" />
        </mxCell>
        <mxCell id="9Qag15oj4yZn481anW6_-10" value="KM ITB" style="ellipse;whiteSpace=wrap;html=1;aspect=fixed;dashed=1;dashPattern=8 8;" vertex="1" parent="1">
          <mxGeometry x="390" y="158" width="70" height="70" as="geometry" />
        </mxCell>
        <mxCell id="9Qag15oj4yZn481anW6_-11" value="" style="endArrow=none;dashed=1;html=1;dashPattern=1 3;strokeWidth=2;rounded=0;exitX=0.5;exitY=0;exitDx=0;exitDy=0;entryX=0.5;entryY=1;entryDx=0;entryDy=0;" edge="1" parent="1" source="9Qag15oj4yZn481anW6_-10" target="9Qag15oj4yZn481anW6_-7">
          <mxGeometry width="50" height="50" relative="1" as="geometry">
            <mxPoint x="400" y="220" as="sourcePoint" />
            <mxPoint x="450" y="170" as="targetPoint" />
          </mxGeometry>
        </mxCell>
        <mxCell id="9Qag15oj4yZn481anW6_-12" value="" style="endArrow=none;dashed=1;html=1;dashPattern=1 3;strokeWidth=2;rounded=0;exitX=0;exitY=1;exitDx=0;exitDy=0;entryX=1;entryY=0;entryDx=0;entryDy=0;" edge="1" parent="1" source="9Qag15oj4yZn481anW6_-6" target="9Qag15oj4yZn481anW6_-10">
          <mxGeometry width="50" height="50" relative="1" as="geometry">
            <mxPoint x="435" y="168" as="sourcePoint" />
            <mxPoint x="435" y="70" as="targetPoint" />
          </mxGeometry>
        </mxCell>
        <mxCell id="9Qag15oj4yZn481anW6_-13" value="" style="endArrow=none;dashed=1;html=1;dashPattern=1 3;strokeWidth=2;rounded=0;exitX=0;exitY=0.5;exitDx=0;exitDy=0;entryX=1;entryY=0.5;entryDx=0;entryDy=0;" edge="1" parent="1" source="9Qag15oj4yZn481anW6_-5" target="9Qag15oj4yZn481anW6_-10">
          <mxGeometry width="50" height="50" relative="1" as="geometry">
            <mxPoint x="515" y="130" as="sourcePoint" />
            <mxPoint x="780" y="90" as="targetPoint" />
          </mxGeometry>
        </mxCell>
        <mxCell id="9Qag15oj4yZn481anW6_-14" value="" style="endArrow=none;dashed=1;html=1;dashPattern=1 3;strokeWidth=2;rounded=0;exitX=0;exitY=0;exitDx=0;exitDy=0;entryX=1;entryY=1;entryDx=0;entryDy=0;" edge="1" parent="1" source="9Qag15oj4yZn481anW6_-4" target="9Qag15oj4yZn481anW6_-10">
          <mxGeometry width="50" height="50" relative="1" as="geometry">
            <mxPoint x="560" y="203" as="sourcePoint" />
            <mxPoint x="470" y="203" as="targetPoint" />
          </mxGeometry>
        </mxCell>
        <mxCell id="9Qag15oj4yZn481anW6_-15" value="" style="endArrow=none;dashed=1;html=1;dashPattern=1 3;strokeWidth=2;rounded=0;exitX=0;exitY=0.5;exitDx=0;exitDy=0;entryX=1;entryY=0.5;entryDx=0;entryDy=0;" edge="1" parent="1">
          <mxGeometry width="50" height="50" relative="1" as="geometry">
            <mxPoint x="390" y="192.5" as="sourcePoint" />
            <mxPoint x="300" y="192.5" as="targetPoint" />
          </mxGeometry>
        </mxCell>
        <mxCell id="9Qag15oj4yZn481anW6_-16" value="" style="endArrow=none;dashed=1;html=1;dashPattern=1 3;strokeWidth=2;rounded=0;exitX=0.5;exitY=0;exitDx=0;exitDy=0;entryX=0.5;entryY=1;entryDx=0;entryDy=0;" edge="1" parent="1">
          <mxGeometry width="50" height="50" relative="1" as="geometry">
            <mxPoint x="425" y="328" as="sourcePoint" />
            <mxPoint x="425" y="230" as="targetPoint" />
          </mxGeometry>
        </mxCell>
        <mxCell id="9Qag15oj4yZn481anW6_-17" value="" style="endArrow=none;dashed=1;html=1;dashPattern=1 3;strokeWidth=2;rounded=0;exitX=0;exitY=0;exitDx=0;exitDy=0;entryX=1;entryY=1;entryDx=0;entryDy=0;" edge="1" parent="1" target="9Qag15oj4yZn481anW6_-9">
          <mxGeometry width="50" height="50" relative="1" as="geometry">
            <mxPoint x="395" y="170" as="sourcePoint" />
            <mxPoint x="340" y="108" as="targetPoint" />
          </mxGeometry>
        </mxCell>
        <mxCell id="9Qag15oj4yZn481anW6_-18" value="" style="endArrow=none;dashed=1;html=1;dashPattern=1 3;strokeWidth=2;rounded=0;exitX=1;exitY=0;exitDx=0;exitDy=0;entryX=0;entryY=1;entryDx=0;entryDy=0;" edge="1" parent="1" source="9Qag15oj4yZn481anW6_-3" target="9Qag15oj4yZn481anW6_-10">
          <mxGeometry width="50" height="50" relative="1" as="geometry">
            <mxPoint x="435" y="338" as="sourcePoint" />
            <mxPoint x="435" y="240" as="targetPoint" />
          </mxGeometry>
        </mxCell>
        <mxCell id="9Qag15oj4yZn481anW6_-19" value="" style="endArrow=none;dashed=1;html=1;dashPattern=1 3;strokeWidth=2;rounded=0;exitX=0.76;exitY=0.083;exitDx=0;exitDy=0;entryX=0;entryY=0.5;entryDx=0;entryDy=0;exitPerimeter=0;" edge="1" parent="1" source="9Qag15oj4yZn481anW6_-9" target="9Qag15oj4yZn481anW6_-7">
          <mxGeometry width="50" height="50" relative="1" as="geometry">
            <mxPoint x="350" y="260" as="sourcePoint" />
            <mxPoint x="410" y="198" as="targetPoint" />
          </mxGeometry>
        </mxCell>
        <mxCell id="9Qag15oj4yZn481anW6_-20" value="" style="endArrow=none;dashed=1;html=1;dashPattern=1 3;strokeWidth=2;rounded=0;exitX=0;exitY=0;exitDx=0;exitDy=0;entryX=1;entryY=0.5;entryDx=0;entryDy=0;" edge="1" parent="1" source="9Qag15oj4yZn481anW6_-6" target="9Qag15oj4yZn481anW6_-7">
          <mxGeometry width="50" height="50" relative="1" as="geometry">
            <mxPoint x="343" y="76" as="sourcePoint" />
            <mxPoint x="400" y="35" as="targetPoint" />
          </mxGeometry>
        </mxCell>
        <mxCell id="9Qag15oj4yZn481anW6_-21" value="" style="endArrow=none;dashed=1;html=1;dashPattern=1 3;strokeWidth=2;rounded=0;exitX=0.5;exitY=0;exitDx=0;exitDy=0;entryX=0;entryY=1;entryDx=0;entryDy=0;" edge="1" parent="1" source="9Qag15oj4yZn481anW6_-2" target="9Qag15oj4yZn481anW6_-9">
          <mxGeometry width="50" height="50" relative="1" as="geometry">
            <mxPoint x="343" y="78" as="sourcePoint" />
            <mxPoint x="400" y="35" as="targetPoint" />
          </mxGeometry>
        </mxCell>
        <mxCell id="9Qag15oj4yZn481anW6_-22" value="" style="endArrow=none;dashed=1;html=1;dashPattern=1 3;strokeWidth=2;rounded=0;exitX=0.5;exitY=0;exitDx=0;exitDy=0;entryX=1;entryY=1;entryDx=0;entryDy=0;" edge="1" parent="1" source="9Qag15oj4yZn481anW6_-5" target="9Qag15oj4yZn481anW6_-6">
          <mxGeometry width="50" height="50" relative="1" as="geometry">
            <mxPoint x="275" y="168" as="sourcePoint" />
            <mxPoint x="300" y="132" as="targetPoint" />
          </mxGeometry>
        </mxCell>
        <mxCell id="9Qag15oj4yZn481anW6_-23" value="" style="endArrow=none;dashed=1;html=1;dashPattern=1 3;strokeWidth=2;rounded=0;exitX=1;exitY=0;exitDx=0;exitDy=0;entryX=0.5;entryY=1;entryDx=0;entryDy=0;" edge="1" parent="1" source="9Qag15oj4yZn481anW6_-4" target="9Qag15oj4yZn481anW6_-5">
          <mxGeometry width="50" height="50" relative="1" as="geometry">
            <mxPoint x="595" y="168" as="sourcePoint" />
            <mxPoint x="575" y="130" as="targetPoint" />
          </mxGeometry>
        </mxCell>
        <mxCell id="9Qag15oj4yZn481anW6_-24" value="" style="endArrow=none;dashed=1;html=1;dashPattern=1 3;strokeWidth=2;rounded=0;exitX=1;exitY=0.5;exitDx=0;exitDy=0;entryX=0;entryY=1;entryDx=0;entryDy=0;" edge="1" parent="1" source="9Qag15oj4yZn481anW6_-8" target="9Qag15oj4yZn481anW6_-4">
          <mxGeometry width="50" height="50" relative="1" as="geometry">
            <mxPoint x="565" y="290" as="sourcePoint" />
            <mxPoint x="595" y="238" as="targetPoint" />
          </mxGeometry>
        </mxCell>
        <mxCell id="9Qag15oj4yZn481anW6_-25" value="" style="endArrow=none;dashed=1;html=1;dashPattern=1 3;strokeWidth=2;rounded=0;exitX=1;exitY=1;exitDx=0;exitDy=0;entryX=0;entryY=0.5;entryDx=0;entryDy=0;" edge="1" parent="1" source="9Qag15oj4yZn481anW6_-3" target="9Qag15oj4yZn481anW6_-8">
          <mxGeometry width="50" height="50" relative="1" as="geometry">
            <mxPoint x="470" y="373" as="sourcePoint" />
            <mxPoint x="515" y="340" as="targetPoint" />
          </mxGeometry>
        </mxCell>
        <mxCell id="9Qag15oj4yZn481anW6_-26" value="" style="endArrow=none;dashed=1;html=1;dashPattern=1 3;strokeWidth=2;rounded=0;exitX=0.5;exitY=1;exitDx=0;exitDy=0;entryX=0;entryY=0;entryDx=0;entryDy=0;" edge="1" parent="1" source="9Qag15oj4yZn481anW6_-2" target="9Qag15oj4yZn481anW6_-3">
          <mxGeometry width="50" height="50" relative="1" as="geometry">
            <mxPoint x="350" y="340" as="sourcePoint" />
            <mxPoint x="400" y="373" as="targetPoint" />
          </mxGeometry>
        </mxCell>
      </root>
    </mxGraphModel>
  </diagram>
</mxfile>
